<svg width="17" height="21" viewBox="0 0 17 21"  xmlns="http://www.w3.org/2000/svg">
<path fill-rule="evenodd" clip-rule="evenodd" d="M8.5 2.37664C6.69653 2.37664 4.96693 3.07902 3.69168 4.32927C2.41643 5.57953 1.7 7.27524 1.7 9.04336C1.7 11.6251 3.41338 14.1303 5.29206 16.0745C6.21402 17.0286 7.13887 17.8097 7.83417 18.3525C8.09295 18.5545 8.31897 18.7228 8.5 18.8539C8.68103 18.7228 8.90705 18.5545 9.16583 18.3525C9.86113 17.8097 10.786 17.0286 11.7079 16.0745C13.5866 14.1303 15.3 11.6251 15.3 9.04336C15.3 7.27524 14.5836 5.57953 13.3083 4.32927C12.0331 3.07902 10.3035 2.37664 8.5 2.37664ZM8.5 19.8768C8.02851 20.5702 8.02805 20.5698 8.02805 20.5698L8.02562 20.5683L8.01996 20.5646L8.00047 20.5516C7.98392 20.5406 7.96032 20.5248 7.93013 20.5043C7.86975 20.4633 7.783 20.4036 7.67363 20.3261C7.45497 20.1713 7.14541 19.9453 6.7752 19.6563C6.03613 19.0793 5.04848 18.2458 4.05794 17.2207C2.11162 15.2065 0 12.295 0 9.04336C5.06639e-08 6.83321 0.89554 4.71359 2.4896 3.15078C4.08366 1.58796 6.24566 0.709961 8.5 0.709961C10.7543 0.709961 12.9164 1.58796 14.5104 3.15078C16.1045 4.71359 17 6.83321 17 9.04336C17 12.295 14.8884 15.2065 12.9421 17.2207C11.9515 18.2458 10.9639 19.0793 10.2248 19.6563C9.85459 19.9453 9.54504 20.1713 9.32638 20.3261C9.21701 20.4036 9.13025 20.4633 9.06987 20.5043C9.03968 20.5248 9.01609 20.5406 8.99954 20.5516L8.98006 20.5646L8.97439 20.5683L8.97259 20.5694C8.97259 20.5694 8.9715 20.5702 8.5 19.8768ZM8.5 19.8768L8.9715 20.5702C8.68598 20.7568 8.31356 20.7565 8.02805 20.5698L8.5 19.8768Z"/>
<path fill-rule="evenodd" clip-rule="evenodd" d="M8.5 7.37668C7.56112 7.37668 6.8 8.12288 6.8 9.04336C6.8 9.96385 7.56112 10.71 8.5 10.71C9.43888 10.71 10.2 9.96385 10.2 9.04336C10.2 8.12288 9.43888 7.37668 8.5 7.37668ZM5.1 9.04336C5.1 7.2024 6.62223 5.71 8.5 5.71C10.3778 5.71 11.9 7.2024 11.9 9.04336C11.9 10.8843 10.3778 12.3767 8.5 12.3767C6.62223 12.3767 5.1 10.8843 5.1 9.04336Z"/>
</svg>
