<svg width="18" height="13" viewBox="0 0 18 13"  xmlns="http://www.w3.org/2000/svg">
<path fill-rule="evenodd" clip-rule="evenodd" d="M0 4.64286C0 4.13002 0.402944 3.71429 0.9 3.71429H13.5C13.9971 3.71429 14.4 4.13002 14.4 4.64286C14.4 5.15569 13.9971 5.57143 13.5 5.57143H0.9C0.402944 5.57143 0 5.15569 0 4.64286Z" />
<path fill-rule="evenodd" clip-rule="evenodd" d="M0 0.928571C0 0.415736 0.402944 0 0.9 0H17.1C17.5971 0 18 0.415736 18 0.928571C18 1.44141 17.5971 1.85714 17.1 1.85714H0.9C0.402944 1.85714 0 1.44141 0 0.928571Z" />
<path fill-rule="evenodd" clip-rule="evenodd" d="M0 8.35714C0 7.84431 0.402944 7.42857 0.9 7.42857H17.1C17.5971 7.42857 18 7.84431 18 8.35714C18 8.86998 17.5971 9.28571 17.1 9.28571H0.9C0.402944 9.28571 0 8.86998 0 8.35714Z" />
<path fill-rule="evenodd" clip-rule="evenodd" d="M0 12.0714C0 11.5586 0.402944 11.1429 0.9 11.1429H13.5C13.9971 11.1429 14.4 11.5586 14.4 12.0714C14.4 12.5843 13.9971 13 13.5 13H0.9C0.402944 13 0 12.5843 0 12.0714Z" />
</svg>
