<svg width="19" height="20" viewBox="0 0 19 20"  xmlns="http://www.w3.org/2000/svg">
<path fill-rule="evenodd" clip-rule="evenodd" d="M4.75 4.66829C4.31277 4.66829 3.95833 5.02274 3.95833 5.45996V14.96C3.95833 15.3972 4.31277 15.7516 4.75 15.7516H14.25C14.6872 15.7516 15.0417 15.3972 15.0417 14.96V5.45996C15.0417 5.02274 14.6872 4.66829 14.25 4.66829H4.75ZM2.375 5.45996C2.375 4.14828 3.43832 3.08496 4.75 3.08496H14.25C15.5617 3.08496 16.625 4.14828 16.625 5.45996V14.96C16.625 16.2716 15.5617 17.335 14.25 17.335H4.75C3.43832 17.335 2.375 16.2716 2.375 14.96V5.45996Z"/>
<path fill-rule="evenodd" clip-rule="evenodd" d="M6.33333 7.83496C6.33333 7.39774 6.68777 7.04329 7.125 7.04329H11.875C12.3122 7.04329 12.6667 7.39774 12.6667 7.83496V12.585C12.6667 13.0222 12.3122 13.3766 11.875 13.3766H7.125C6.68777 13.3766 6.33333 13.0222 6.33333 12.585V7.83496ZM7.91667 8.62663V11.7933H11.0833V8.62663H7.91667Z"/>
<path fill-rule="evenodd" clip-rule="evenodd" d="M7.125 0.709961C7.56223 0.709961 7.91667 1.0644 7.91667 1.50163V3.87663C7.91667 4.31385 7.56223 4.66829 7.125 4.66829C6.68777 4.66829 6.33333 4.31385 6.33333 3.87663V1.50163C6.33333 1.0644 6.68777 0.709961 7.125 0.709961Z"/>
<path fill-rule="evenodd" clip-rule="evenodd" d="M11.875 0.709961C12.3122 0.709961 12.6667 1.0644 12.6667 1.50163V3.87663C12.6667 4.31385 12.3122 4.66829 11.875 4.66829C11.4378 4.66829 11.0833 4.31385 11.0833 3.87663V1.50163C11.0833 1.0644 11.4378 0.709961 11.875 0.709961Z"/>
<path fill-rule="evenodd" clip-rule="evenodd" d="M7.125 15.7516C7.56223 15.7516 7.91667 16.1061 7.91667 16.5433V18.9183C7.91667 19.3555 7.56223 19.71 7.125 19.71C6.68777 19.71 6.33333 19.3555 6.33333 18.9183V16.5433C6.33333 16.1061 6.68777 15.7516 7.125 15.7516Z"/>
<path fill-rule="evenodd" clip-rule="evenodd" d="M11.875 15.7516C12.3122 15.7516 12.6667 16.1061 12.6667 16.5433V18.9183C12.6667 19.3555 12.3122 19.71 11.875 19.71C11.4378 19.71 11.0833 19.3555 11.0833 18.9183V16.5433C11.0833 16.1061 11.4378 15.7516 11.875 15.7516Z"/>
<path fill-rule="evenodd" clip-rule="evenodd" d="M15.0417 7.83496C15.0417 7.39774 15.3961 7.04329 15.8333 7.04329H18.2083C18.6456 7.04329 19 7.39774 19 7.83496C19 8.27219 18.6456 8.62663 18.2083 8.62663H15.8333C15.3961 8.62663 15.0417 8.27219 15.0417 7.83496Z"/>
<path fill-rule="evenodd" clip-rule="evenodd" d="M15.0417 11.7933C15.0417 11.3561 15.3961 11.0016 15.8333 11.0016H18.2083C18.6456 11.0016 19 11.3561 19 11.7933C19 12.2305 18.6456 12.585 18.2083 12.585H15.8333C15.3961 12.585 15.0417 12.2305 15.0417 11.7933Z"/>
<path fill-rule="evenodd" clip-rule="evenodd" d="M0 7.83496C0 7.39774 0.354441 7.04329 0.791667 7.04329H3.16667C3.60389 7.04329 3.95833 7.39774 3.95833 7.83496C3.95833 8.27219 3.60389 8.62663 3.16667 8.62663H0.791667C0.354441 8.62663 0 8.27219 0 7.83496Z"/>
<path fill-rule="evenodd" clip-rule="evenodd" d="M0 11.7933C0 11.3561 0.354441 11.0016 0.791667 11.0016H3.16667C3.60389 11.0016 3.95833 11.3561 3.95833 11.7933C3.95833 12.2305 3.60389 12.585 3.16667 12.585H0.791667C0.354441 12.585 0 12.2305 0 11.7933Z"/>
</svg>
