<svg width="17" height="20" viewBox="0 0 17 20"  xmlns="http://www.w3.org/2000/svg">
<path fill-rule="evenodd" clip-rule="evenodd" d="M1.38312 13.5012C2.26871 12.6104 3.46981 12.11 4.72222 12.11H12.2778C13.5302 12.11 14.7313 12.6104 15.6169 13.5012C16.5025 14.392 17 15.6002 17 16.86V18.76C17 19.2846 16.5772 19.71 16.0556 19.71C15.534 19.71 15.1111 19.2846 15.1111 18.76V16.86C15.1111 16.1041 14.8126 15.3792 14.2813 14.8447C13.7499 14.3102 13.0292 14.01 12.2778 14.01H4.72222C3.97078 14.01 3.25012 14.3102 2.71877 14.8447C2.18741 15.3792 1.88889 16.1041 1.88889 16.86V18.76C1.88889 19.2846 1.46605 19.71 0.944444 19.71C0.422842 19.71 0 19.2846 0 18.76V16.86C0 15.6002 0.497529 14.392 1.38312 13.5012Z" />
<path fill-rule="evenodd" clip-rule="evenodd" d="M8.5 2.60996C6.93519 2.60996 5.66667 3.88595 5.66667 5.45996C5.66667 7.03397 6.93519 8.30996 8.5 8.30996C10.0648 8.30996 11.3333 7.03397 11.3333 5.45996C11.3333 3.88595 10.0648 2.60996 8.5 2.60996ZM3.77778 5.45996C3.77778 2.83661 5.89199 0.709961 8.5 0.709961C11.108 0.709961 13.2222 2.83661 13.2222 5.45996C13.2222 8.08331 11.108 10.21 8.5 10.21C5.89199 10.21 3.77778 8.08331 3.77778 5.45996Z"/>
</svg>
