<svg width="70" height="100" viewBox="0 0 70 100" fill="none" xmlns="http://www.w3.org/2000/svg">
<path d="M0.668701 34.5124L35.1128 13.3254L69.1391 34.5124L34.0793 55.0838L0.668701 34.5124Z" fill="url(#paint0_linear)"/>
<path d="M0.668701 50.5319L35.1128 29.3449L69.1391 50.5319L34.0793 71.1033L0.668701 50.5319Z" fill="url(#paint1_linear)"/>
<path d="M0.668701 65.0011L35.1128 43.8141L69.1391 65.0011L34.0793 85.5725L0.668701 65.0011Z" fill="url(#paint2_linear)"/>
<g opacity="0.5">
<path opacity="0.5" d="M0.668701 65.0011L35.1128 43.8141L69.1391 65.0011L34.0793 85.5725L0.668701 65.0011Z" fill="#006DBF"/>
<path opacity="0.9" d="M0.668701 65.0011L35.1128 43.8141L69.1391 65.0011L34.0793 85.5725L0.668701 65.0011Z" fill="url(#paint3_linear)"/>
</g>
<g opacity="0.5">
<path opacity="0.5" d="M0.668701 50.5319L35.1128 29.3449L69.1391 50.5319L34.0793 71.1033L0.668701 50.5319Z" fill="#006DBF"/>
<path opacity="0.9" d="M0.668701 50.5319L35.1128 29.3449L69.1391 50.5319L34.0793 71.1033L0.668701 50.5319Z" fill="url(#paint4_linear)"/>
</g>
<g opacity="0.5">
<path opacity="0.5" d="M0.668701 34.5124L35.1128 13.3254L69.1391 34.5124L34.0793 55.0838L0.668701 34.5124Z" fill="#006DBF"/>
<path d="M0.668701 34.5124L35.1128 13.3254L69.1391 34.5124L34.0793 55.0838L0.668701 34.5124Z" fill="url(#paint5_linear)"/>
</g>
<defs>
<linearGradient id="paint0_linear" x1="56.9953" y1="49.886" x2="5.06114" y2="21.7227" gradientUnits="userSpaceOnUse">
<stop stop-color="white"/>
<stop offset="0.297568" stop-color="white" stop-opacity="0.83907"/>
<stop offset="1" stop-color="white" stop-opacity="0.12"/>
</linearGradient>
<linearGradient id="paint1_linear" x1="56.9953" y1="65.9055" x2="5.06114" y2="37.7422" gradientUnits="userSpaceOnUse">
<stop stop-color="white"/>
<stop offset="0.297568" stop-color="white" stop-opacity="0.83907"/>
<stop offset="1" stop-color="white" stop-opacity="0.12"/>
</linearGradient>
<linearGradient id="paint2_linear" x1="56.9953" y1="80.3747" x2="5.06114" y2="52.2114" gradientUnits="userSpaceOnUse">
<stop stop-color="white"/>
<stop offset="0.297568" stop-color="white" stop-opacity="0.83907"/>
<stop offset="1" stop-color="white" stop-opacity="0.12"/>
</linearGradient>
<linearGradient id="paint3_linear" x1="64.4883" y1="64.8719" x2="-33.5175" y2="50.1572" gradientUnits="userSpaceOnUse">
<stop offset="0.136656" stop-color="white"/>
<stop offset="1" stop-color="white" stop-opacity="0"/>
</linearGradient>
<linearGradient id="paint4_linear" x1="64.4883" y1="50.4027" x2="-33.5175" y2="35.688" gradientUnits="userSpaceOnUse">
<stop offset="0.136656" stop-color="white"/>
<stop offset="1" stop-color="white" stop-opacity="0"/>
</linearGradient>
<linearGradient id="paint5_linear" x1="64.4883" y1="34.3832" x2="-33.5175" y2="19.6685" gradientUnits="userSpaceOnUse">
<stop offset="0.136656" stop-color="white"/>
<stop offset="1" stop-color="white" stop-opacity="0"/>
</linearGradient>
</defs>
</svg>
