<svg width="20" height="20" viewBox="0 0 20 20" fill="none" xmlns="http://www.w3.org/2000/svg">
<path d="M19.3381 19.7827L19.3428 19.7819V12.8137C19.3428 9.40477 18.6089 6.77881 14.6237 6.77881C12.7079 6.77881 11.4222 7.83014 10.8973 8.82685H10.8419V7.09706H7.06328V19.7819H10.9979V13.5009C10.9979 11.8471 11.3114 10.2479 13.3594 10.2479C15.3774 10.2479 15.4074 12.1352 15.4074 13.6069V19.7827H19.3381Z" fill="white"/>
<path d="M0.656295 7.09781H4.59563V19.7827H0.656295V7.09781Z" fill="white"/>
<path d="M2.62436 0.782715C1.36482 0.782715 0.342773 1.80476 0.342773 3.0643C0.342773 4.32384 1.36482 5.36726 2.62436 5.36726C3.8839 5.36726 4.90594 4.32384 4.90594 3.0643C4.90515 1.80476 3.88311 0.782715 2.62436 0.782715Z" fill="white"/>
</svg>
